<?xml version="1.0" standalone="yes"?>

<svg width="100%" height="100%" version="1.1"
	xmlns="http://www.w3.org/2000/svg">

	<ellipse cx="600" cy="200" rx="30" ry="90"
		fill="#e5004e" transform="rotate(30, 600 245)"/>
	<ellipse cx="600" cy="200" rx="30" ry="90"
		fill="#e5004e" transform="rotate(-30, 600 245)"/>
	<ellipse cx="600" cy="200" rx="30" ry="90"
		fill="#e5004e" transform="rotate(90, 600 245)"/>
	<ellipse cx="600" cy="200" rx="30" ry="90"
		fill="#e5004e" transform="rotate(150,600 245)"/>
	<ellipse cx="600" cy="200" rx="30" ry="90"
		fill="#e5004e" transform="rotate(210,600 245)"/>
	<ellipse cx="600" cy="200" rx="30" ry="90"
		fill="#e5004e" transform="rotate(270,600 245)"/>

	<ellipse cx="600" cy="200" rx="30" ry="90"
		fill="#eb584d" transform="rotate(0,600 245)"/>
	<ellipse cx="600" cy="200" rx="30" ry="90"
		fill="#eb584d" transform="rotate(60,600 245)"/>
	<ellipse cx="600" cy="200" rx="30" ry="90"
		fill="#eb584d" transform="rotate(120,600 245)"/>
	<ellipse cx="600" cy="200" rx="30" ry="90"
		fill="#eb584d" transform="rotate(180,600 245)"/>
	<ellipse cx="600" cy="200" rx="30" ry="90"
		fill="#eb584d" transform="rotate(240,600 245)"/>
	<ellipse cx="600" cy="200" rx="30" ry="90"
		fill="#eb584d" transform="rotate(300,600 245)"/>


	<circle cx="600" cy="245" r="80" fill="#ffce00"/>

	<path d="M560,220 Q570,212 580,220" fill="none" stroke="#5c234e" stroke-width="3" stroke-linecap="round"/>

	<path d="M620,220 Q630,212 640,220" fill="none" stroke="#5c234e" stroke-width="3" stroke-linecap="round"/>

	<circle cx="560" cy="245" r="10" fill="#eb584d"/>
	<circle cx="640" cy="245" r="10" fill="#eb584d"/>

	<path d="M621.5,270 c 0,15.1 -15.1,19 -21.4,19.3
		c-16.3,0 -21.4,-14.1 -21.4,-19.3" fill="none"
		stroke="#5c234e" stroke-width="5" stroke-linecap="round"/>
</svg>